<svg id="icons" xmlns="http://www.w3.org/2000/svg" viewBox="0 0 128 128"><defs><style>.cls-1{fill:#ffaf22;}.cls-2{fill:#4d5db1;}.cls-3{fill:#d3d6eb;}.cls-4{fill:#ffe2b6;}.cls-5{fill:#fff;}.cls-6{fill:none;stroke:#141a3a;stroke-linecap:round;stroke-linejoin:round;stroke-width:4px;}</style></defs><circle class="cls-1" cx="64" cy="64" r="63.21"/><g id="_Group_" data-name=" Group "><path class="cls-2" d="M86.55,76.69V98.43A1.61,1.61,0,0,1,84.94,100H43.06a1.61,1.61,0,0,1-1.61-1.61V76.69Z"/><path class="cls-2" d="M86.55,55V76.69H41.45V55a1.62,1.62,0,0,1,1.61-1.62H84.94A1.62,1.62,0,0,1,86.55,55Z"/><path class="cls-3" d="M70.25,49.31l1,4H56.75l1-4a3.22,3.22,0,0,1,3.13-2.42h6.24A3.22,3.22,0,0,1,70.25,49.31Z"/><polygon class="cls-4" points="70.44 16.29 74.47 34.01 64 34.01 53.53 34.01 57.56 16.29 70.44 16.29"/><polygon class="cls-5" points="62.39 16.29 57.56 16.29 53.53 34.01 58.36 34.01 62.39 16.29"/><path class="cls-5" d="M56.75,53.33h4.83l1-4a3.23,3.23,0,0,1,3.13-2.42H60.88a3.22,3.22,0,0,0-3.13,2.42Z"/><path class="cls-5" d="M46.28,98.43V55a1.62,1.62,0,0,1,1.61-1.62H43.06A1.62,1.62,0,0,0,41.45,55V98.43A1.61,1.61,0,0,0,43.06,100h4.83A1.62,1.62,0,0,1,46.28,98.43Z"/><path class="cls-6" d="M71.25,53.33H84.94A1.62,1.62,0,0,1,86.55,55V98.43A1.61,1.61,0,0,1,84.94,100H43.06a1.61,1.61,0,0,1-1.61-1.61V55a1.62,1.62,0,0,1,1.61-1.62H56.75"/><line class="cls-6" x1="60.78" y1="84.74" x2="67.22" y2="84.74"/><line class="cls-6" x1="60.78" y1="61.39" x2="67.22" y2="61.39"/><line class="cls-6" x1="47.89" y1="100.04" x2="47.89" y2="103.26"/><line class="cls-6" x1="80.11" y1="100.04" x2="80.11" y2="103.26"/><line class="cls-6" x1="41.45" y1="76.69" x2="86.55" y2="76.69"/><path class="cls-6" d="M71.25,53.33H56.75l1-4a3.22,3.22,0,0,1,3.13-2.42h6.24a3.22,3.22,0,0,1,3.13,2.42Z"/><line class="cls-6" x1="64" y1="46.89" x2="64" y2="34.01"/><polygon class="cls-6" points="74.47 34.01 64 34.01 53.53 34.01 57.56 16.29 70.44 16.29 74.47 34.01"/></g></svg>