<svg id="icons" xmlns="http://www.w3.org/2000/svg" viewBox="0 0 128 128"><defs><style>.cls-1{fill:#ffaf22;}.cls-2{fill:#cbccd3;}.cls-3{fill:#a5a7ad;}.cls-4{fill:#464649;}.cls-5{fill:#001b72;}.cls-6{fill:#f4d647;}.cls-7{fill:none;stroke:#000;stroke-linecap:round;stroke-linejoin:round;stroke-width:2px;}</style></defs><circle class="cls-1" cx="64" cy="64" r="63.21"/><g id="_Group_" data-name=" Group "><path class="cls-2" d="M116.13,43l-.83.83A4,4,0,0,1,112.47,45h-3.34V41h3.34a4,4,0,0,1,2.83,1.17Z"/><path class="cls-3" d="M109.13,41v4a2,2,0,0,1-2,2h-2V39h2A2,2,0,0,1,109.13,41Z"/><path class="cls-4" d="M105.13,39v8a2,2,0,0,1-2,2h-6V37h6A2,2,0,0,1,105.13,39Z"/><path class="cls-3" d="M97.13,47v2a2,2,0,0,1-2,2h-6V47Z"/><rect class="cls-3" x="89.13" y="43.01" width="8" height="4"/><rect class="cls-3" x="89.13" y="39.01" width="8" height="4"/><path class="cls-3" d="M97.13,37v2h-8V35h6A2,2,0,0,1,97.13,37Z"/><path class="cls-5" d="M45.13,53h-17a10.1,10.1,0,0,1-2.51-.32,10,10,0,0,1-7.46-10.4A10.19,10.19,0,0,1,28.44,33H86.13a3,3,0,0,1,3,3V50.7a4,4,0,0,1-2,3.47L73.85,61.86a16,16,0,0,1-8,2.15h-9.7Zm2-10a3,3,0,0,0-3-3h-12a3,3,0,0,0,0,6h12A3,3,0,0,0,47.13,43Z"/><path class="cls-4" d="M56.13,64h-10a4,4,0,0,0-2.37.78A17.5,17.5,0,0,0,38.35,62a4,4,0,0,0-5,2.59,3.89,3.89,0,0,0-.19,1.22V89a14.69,14.69,0,0,0,2.46,8H27.13a4,4,0,0,1-3.38-1.86C22,92.32,19.13,85,19.13,74c0-11.53,4.16-18.39,6.49-21.32a10.1,10.1,0,0,0,2.51.32h17Z"/><path class="cls-4" d="M45.33,70a1.94,1.94,0,0,1,1.81,2.06c0,.11,0,.22,0,.33L46,78.4A1.87,1.87,0,0,1,44.25,80H42.13V70Z"/><path class="cls-6" d="M44.13,40a3,3,0,0,1,0,6h-12a3,3,0,0,1,0-6Z"/><path class="cls-3" d="M44.72,93.6a2,2,0,0,1,0,2.83A2,2,0,0,1,43.3,97H35.59a14.69,14.69,0,0,1-2.46-8V65.77a4,4,0,0,1,4-4,3.93,3.93,0,0,1,1.22.19,17.5,17.5,0,0,1,5.41,2.83A4,4,0,0,0,42.13,68V89.35a4,4,0,0,0,1.17,2.83Z"/><path class="cls-7" d="M105.13,39a2,2,0,0,0-2-2h-6"/><path class="cls-7" d="M97.13,49h6a2,2,0,0,0,2-2"/><path class="cls-7" d="M109.13,41a2,2,0,0,0-2-2h-2v8h2a2,2,0,0,0,2-2"/><path class="cls-7" d="M109.13,45h3.34a4,4,0,0,0,2.83-1.17l.83-.83-.83-.83A4,4,0,0,0,112.47,41h-3.34Z"/><path class="cls-7" d="M89.13,50.7V51h6a2,2,0,0,0,2-2V37a2,2,0,0,0-2-2h-6v1"/><line class="cls-7" x1="97.13" y1="43.01" x2="89.13" y2="43.01"/><line class="cls-7" x1="97.13" y1="39.01" x2="89.13" y2="39.01"/><line class="cls-7" x1="97.13" y1="47.01" x2="89.13" y2="47.01"/><path class="cls-7" d="M42.13,80v9.34a4,4,0,0,0,1.17,2.83l1.42,1.42a2,2,0,0,1,0,2.83A2,2,0,0,1,43.3,97H27.13a4,4,0,0,1-3.38-1.86C22,92.32,19.13,85,19.13,74c0-11.53,4.16-18.39,6.49-21.32a10.1,10.1,0,0,0,2.51.32h35"/><path class="cls-7" d="M25.62,52.69a10,10,0,0,1-7.46-10.4A10.19,10.19,0,0,1,28.44,33H86.13a3,3,0,0,1,3,3V50.7a4,4,0,0,1-2,3.47L73.85,61.86a16,16,0,0,1-8,2.15H46.13a4,4,0,0,0-4,4v2"/><path class="cls-7" d="M42.13,70h3.2a1.94,1.94,0,0,1,1.81,2.06c0,.11,0,.22,0,.33L46,78.4A1.87,1.87,0,0,1,44.25,80H42.13Z"/><path class="cls-7" d="M35.59,97a14.69,14.69,0,0,1-2.46-8V65.77a4,4,0,0,1,4-4,3.93,3.93,0,0,1,1.22.19,17.5,17.5,0,0,1,5.41,2.83"/><line class="cls-7" x1="56.13" y1="64.01" x2="45.13" y2="53.01"/><path class="cls-7" d="M44.13,46h-12a3,3,0,0,1,0-6h12a3,3,0,0,1,0,6Z"/></g></svg>