<svg id="icons" xmlns="http://www.w3.org/2000/svg" viewBox="0 0 128 128"><defs><style>.cls-1{fill:#ffaf22;}.cls-2{fill:#b4d8ed;}.cls-3{fill:#fff;}.cls-4{fill:#d6edfc;}.cls-5{fill:#141a3a;}.cls-6{fill:none;stroke:#141a3a;stroke-linecap:round;stroke-linejoin:round;stroke-width:2px;}</style></defs><circle class="cls-1" cx="64" cy="64" r="63.21"/><g id="architecture-building-home-mansion-house"><path class="cls-2" d="M58.1,67.27v-12a6,6,0,1,1,11.95,0v12ZM62.53,58a1.19,1.19,0,0,0-1.69,0h0a1.2,1.2,0,0,0,0,1.7h0a1.18,1.18,0,0,0,1.69,0h0a1.28,1.28,0,0,0,.35-.85A1.17,1.17,0,0,0,62.53,58Z"/><path class="cls-2" d="M70.05,99.73v3.61h-6V81.7a6,6,0,0,1,6,6Z"/><path class="cls-2" d="M64.07,81.7v21.64h-6V87.71A6,6,0,0,1,64.07,81.7Z"/><rect class="cls-3" x="70.05" y="99.73" width="20.32" height="3.61"/><rect class="cls-3" x="37.78" y="99.73" width="20.32" height="3.61"/><rect class="cls-4" x="76.03" y="87.71" width="9.56" height="7.21"/><rect class="cls-4" x="42.56" y="87.71" width="9.56" height="7.21"/><path class="cls-2" d="M76,87.71a4.78,4.78,0,1,1,9.56,0Z"/><path class="cls-2" d="M42.56,87.71a4.78,4.78,0,1,1,9.56,0Z"/><path class="cls-2" d="M76,55.24a4.78,4.78,0,1,1,9.56,0Z"/><path class="cls-2" d="M42.56,55.24a4.78,4.78,0,1,1,9.56,0Z"/><rect class="cls-4" x="76.03" y="55.24" width="9.56" height="7.21"/><rect class="cls-4" x="42.56" y="55.24" width="9.56" height="7.21"/><rect class="cls-3" x="90.37" y="67.27" width="4.78" height="9.62"/><rect class="cls-3" x="33" y="67.27" width="4.78" height="9.62"/><rect class="cls-3" x="61.68" y="67.27" width="4.78" height="9.62"/><rect class="cls-3" x="42.56" y="67.27" width="4.78" height="9.62"/><rect class="cls-3" x="71.25" y="67.27" width="4.78" height="9.62"/><rect class="cls-3" x="80.81" y="67.27" width="4.78" height="9.62"/><polygon class="cls-3" points="58.1 67.27 61.68 67.27 61.68 76.89 56.9 76.89 56.9 67.27 58.1 67.27"/><rect class="cls-3" x="52.12" y="67.27" width="4.78" height="9.62"/><rect class="cls-3" x="76.03" y="67.27" width="4.78" height="9.62"/><rect class="cls-3" x="85.59" y="67.27" width="4.78" height="9.62"/><rect class="cls-3" x="47.34" y="67.27" width="4.78" height="9.62"/><rect class="cls-3" x="37.78" y="67.27" width="4.78" height="9.62"/><polygon class="cls-3" points="71.25 67.27 71.25 76.89 66.47 76.89 66.47 67.27 70.05 67.27 71.25 67.27"/><path class="cls-3" d="M76,94.92h9.56V87.71a4.78,4.78,0,1,0-9.56,0ZM37.78,99.73V76.89H90.37V99.73H70.05v-12a6,6,0,1,0-11.95,0v12Zm4.78-4.81h9.56V87.71a4.78,4.78,0,1,0-9.56,0Z"/><path class="cls-3" d="M76,62.46h9.56V55.24a4.78,4.78,0,1,0-9.56,0ZM37.78,67.27V44.42H90.37V67.27H70.05v-12a6,6,0,1,0-11.95,0v12Zm4.78-4.81h9.56V55.24a4.78,4.78,0,1,0-9.56,0Z"/><path class="cls-3" d="M72.44,42v2.4H64.07V33.6A8.4,8.4,0,0,1,72.44,42Z"/><path class="cls-3" d="M64.07,33.6V44.42H55.71V42A8.39,8.39,0,0,1,64.07,33.6Z"/><path class="cls-2" d="M90.37,44.42H72.44V42a8.37,8.37,0,1,0-16.73,0v2.4H34.2L39,28.79H89.17L94,44.42Z"/><path class="cls-5" d="M62.53,58a1.17,1.17,0,0,1,.35.85,1.28,1.28,0,0,1-.35.85,1.18,1.18,0,0,1-1.69,0h0a1.2,1.2,0,0,1,0-1.7h0a1.19,1.19,0,0,1,1.69,0Z"/><polyline class="cls-6" points="37.78 44.42 34.2 44.42 38.98 28.79 89.17 28.79 93.95 44.42 90.37 44.42"/><path class="cls-6" d="M55.71,44.42V42a8.37,8.37,0,1,1,16.73,0v2.4"/><line class="cls-6" x1="64.07" y1="33.6" x2="64.07" y2="44.42"/><polyline class="cls-6" points="58.1 103.34 37.78 103.34 37.78 99.73 37.78 76.89 37.78 67.27 37.78 44.42 55.71 44.42 64.07 44.42 72.44 44.42 90.37 44.42 90.37 67.27 90.37 76.89 90.37 99.73 90.37 103.34 70.05 103.34"/><path class="cls-6" d="M42.56,62.46V55.24a4.78,4.78,0,1,1,9.56,0v7.22"/><polyline class="cls-6" points="53.32 62.46 52.12 62.46 42.56 62.46 41.37 62.46"/><path class="cls-6" d="M42.56,94.92V87.71a4.78,4.78,0,1,1,9.56,0v7.21"/><polyline class="cls-6" points="53.32 94.92 52.12 94.92 42.56 94.92 41.37 94.92"/><path class="cls-6" d="M76,94.92V87.71a4.78,4.78,0,1,1,9.56,0v7.21"/><polyline class="cls-6" points="86.78 94.92 85.59 94.92 76.03 94.92 74.83 94.92"/><path class="cls-6" d="M58.1,67.27v-12a6,6,0,1,1,11.95,0v12"/><path class="cls-6" d="M70.05,103.34H58.1V87.71a6,6,0,1,1,11.95,0Z"/><path class="cls-6" d="M76,62.46V55.24a4.78,4.78,0,1,1,9.56,0v7.22"/><polyline class="cls-6" points="86.78 62.46 85.59 62.46 76.03 62.46 74.83 62.46"/><polygon class="cls-6" points="90.37 76.89 95.15 76.89 95.15 67.27 90.37 67.27 85.59 67.27 80.81 67.27 76.03 67.27 71.25 67.27 70.05 67.27 66.47 67.27 61.68 67.27 58.1 67.27 56.9 67.27 52.12 67.27 47.34 67.27 42.56 67.27 37.78 67.27 33 67.27 33 76.89 37.78 76.89 42.56 76.89 47.34 76.89 52.12 76.89 56.9 76.89 61.68 76.89 66.47 76.89 71.25 76.89 76.03 76.89 80.81 76.89 85.59 76.89 90.37 76.89"/><line class="cls-6" x1="42.56" y1="67.27" x2="42.56" y2="76.89"/><line class="cls-6" x1="47.34" y1="67.27" x2="47.34" y2="76.89"/><line class="cls-6" x1="52.12" y1="67.27" x2="52.12" y2="76.89"/><line class="cls-6" x1="56.9" y1="67.27" x2="56.9" y2="76.89"/><line class="cls-6" x1="61.68" y1="67.27" x2="61.68" y2="76.89"/><line class="cls-6" x1="66.46" y1="67.27" x2="66.46" y2="76.89"/><line class="cls-6" x1="71.25" y1="67.27" x2="71.25" y2="76.89"/><line class="cls-6" x1="76.03" y1="67.27" x2="76.03" y2="76.89"/><line class="cls-6" x1="80.81" y1="67.27" x2="80.81" y2="76.89"/><line class="cls-6" x1="85.59" y1="67.27" x2="85.59" y2="76.89"/><line class="cls-6" x1="64.07" y1="81.7" x2="64.07" y2="103.34"/><line class="cls-6" x1="70.05" y1="99.73" x2="90.37" y2="99.73"/><line class="cls-6" x1="58.1" y1="99.73" x2="37.78" y2="99.73"/><line class="cls-6" x1="52.12" y1="55.24" x2="42.56" y2="55.24"/><line class="cls-6" x1="85.59" y1="55.24" x2="76.03" y2="55.24"/><line class="cls-6" x1="52.12" y1="87.71" x2="42.56" y2="87.71"/><line class="cls-6" x1="85.59" y1="87.71" x2="76.03" y2="87.71"/></g></svg>