<svg id="icons" xmlns="http://www.w3.org/2000/svg" viewBox="0 0 128 128"><defs><style>.cls-1{fill:#ffaf22;}.cls-2{fill:#3598dc;}.cls-3{fill:#2b7fb9;}.cls-4{fill:#3dbbe8;}.cls-5{fill:#e9ebef;}.cls-6{fill:#c8ced6;}.cls-7,.cls-8,.cls-9{fill:none;stroke:#141a3a;stroke-width:2px;}.cls-7{stroke-linecap:round;}.cls-7,.cls-8{stroke-linejoin:round;}.cls-9{stroke-miterlimit:10;}.cls-10{fill:#ffe02c;}.cls-11{fill:#ffc81a;}.cls-12{fill:#8a93a0;isolation:isolate;opacity:0.8;}.cls-13{fill:#37464f;}</style></defs><circle class="cls-1" cx="64" cy="64" r="63.21"/><g id="paint-bucket-brush"><rect class="cls-2" x="42.2" y="45.86" width="56.04" height="57.6"/><rect class="cls-3" x="42.2" y="97.23" width="56.04" height="6.23"/><path class="cls-4" d="M96.69,44.3H43.76v6.23H73.34V55.2a3.11,3.11,0,0,0,3.11,3.11h0a3.12,3.12,0,0,0,3.12-3.11V52.08a1.55,1.55,0,0,1,1.55-1.55h3.12a1.55,1.55,0,0,1,1.56,1.55V66.87a3.9,3.9,0,0,0,3.89,3.9h0a3.9,3.9,0,0,0,3.89-3.9V52.08a1.55,1.55,0,0,1,1.56-1.55h1.55Z"/><rect class="cls-5" x="23.52" y="56.75" width="37.36" height="18.68"/><rect class="cls-6" x="26.64" y="59.87" width="31.14" height="12.45"/><path class="cls-7" d="M98.25,38.07a28,28,0,0,0-56,0"/><polyline class="cls-8" points="42.2 103.46 98.25 103.46 98.25 45.86"/><line class="cls-8" x1="42.2" y1="44.3" x2="42.2" y2="53.64"/><polyline class="cls-6" points="55.25 44.3 37.53 44.3 37.53 38.07 102.92 38.07 102.92 44.3 61.42 44.3"/><rect class="cls-8" x="37.53" y="38.07" width="65.39" height="6.23"/><line class="cls-8" x1="31.31" y1="64.54" x2="31.31" y2="58.31"/><line class="cls-9" x1="37.53" y1="69.21" x2="37.53" y2="56.75"/><line class="cls-9" x1="53.1" y1="62.98" x2="53.1" y2="56.75"/><line class="cls-9" x1="45.32" y1="66.1" x2="45.32" y2="56.75"/><polyline class="cls-8" points="60.89 75.44 60.89 56.76 23.52 56.76 23.52 75.44"/><path class="cls-10" d="M21.19,75.44v6.22a4.67,4.67,0,0,0,4.67,4.67h10.9V98a5.45,5.45,0,0,0,5.44,5.45h0A5.45,5.45,0,0,0,47.65,98h0V86.33h10.9a4.67,4.67,0,0,0,4.67-4.67V75.44Z"/><path class="cls-11" d="M39.09,98V84.78H22V80.89H62.44v3.89H45.32V98a3.12,3.12,0,0,1-3.12,3.11h0A3.11,3.11,0,0,1,39.09,98Z"/><path class="cls-9" d="M20.41,75.44v6.22a4.76,4.76,0,0,0,4.84,4.67h11.3V98a5.56,5.56,0,0,0,5.65,5.45h0A5.57,5.57,0,0,0,47.86,98V86.33h11.3A4.76,4.76,0,0,0,64,81.66V75.44Z"/><rect class="cls-12" x="25.08" y="70.77" width="34.25" height="3.11"/><circle class="cls-13" cx="42.2" cy="97.23" r="1.56"/></g></svg>