<svg id="icons" xmlns="http://www.w3.org/2000/svg" viewBox="0 0 128 128"><defs><style>.cls-1{fill:#ffaf22;}.cls-2{fill:#fff;}.cls-2,.cls-3,.cls-4,.cls-5,.cls-6,.cls-7,.cls-8,.cls-9{fill-rule:evenodd;}.cls-3{fill:#4cd964;}.cls-4{fill:#339eff;}.cls-5{fill:#fc0;}.cls-6{fill:#ff2c55;}.cls-7{fill:#7f2eff;}.cls-8{fill:#141a3a;}.cls-9{isolation:isolate;opacity:0.12;}</style></defs><circle class="cls-1" cx="64" cy="64" r="63.21"/><g id="Page-1"><g id="Full-Color"><g id="paint-palette"><path id="Fill-25" class="cls-2" d="M19.17,66.64C19.17,36.75,41.58,21.8,64,21.8c26.15,0,44.83,22.42,44.83,37.37s-7.47,18.68-18.68,18.68S75.21,85.32,75.21,96.53s-7.47,14.94-14.95,14.94c-14.94,0-41.09-14.94-41.09-44.83"/><path id="Fill-165" class="cls-3" d="M64,93.13A6.12,6.12,0,1,1,57.89,87,6.11,6.11,0,0,1,64,93.13"/><path id="Fill-166" class="cls-4" d="M47.7,76.83a6.12,6.12,0,1,1-6.12-6.12,6.12,6.12,0,0,1,6.12,6.12"/><path id="Fill-167" class="cls-5" d="M47.7,54.41a8.16,8.16,0,1,1-8.16-8.15,8.16,8.16,0,0,1,8.16,8.15"/><path id="Fill-168" class="cls-6" d="M72.15,42.18A8.15,8.15,0,1,1,64,34a8.16,8.16,0,0,1,8.15,8.15"/><path id="Fill-169" class="cls-7" d="M96.61,54.41a8.16,8.16,0,1,1-8.15-8.15,8.16,8.16,0,0,1,8.15,8.15"/><path id="Fill-285" class="cls-8" d="M94.57,54.41a6.12,6.12,0,1,1-6.11-6.11,6.12,6.12,0,0,1,6.11,6.11m-16.3,0A10.19,10.19,0,1,0,88.46,44.22,10.2,10.2,0,0,0,78.27,54.41M64,48.3a6.12,6.12,0,1,1,6.11-6.12A6.12,6.12,0,0,1,64,48.3M64,32A10.19,10.19,0,1,0,74.19,42.18,10.2,10.2,0,0,0,64,32M33.43,54.41a6.12,6.12,0,1,1,6.11,6.11,6.12,6.12,0,0,1-6.11-6.11m16.3,0A10.19,10.19,0,1,0,39.54,64.6,10.2,10.2,0,0,0,49.73,54.41M41.58,80.9a4.08,4.08,0,1,1,4.08-4.07,4.07,4.07,0,0,1-4.08,4.07m0-12.22a8.15,8.15,0,1,0,8.15,8.15,8.16,8.16,0,0,0-8.15-8.15M57.89,97.21A4.08,4.08,0,1,1,62,93.13a4.08,4.08,0,0,1-4.07,4.08m0-12.23A8.15,8.15,0,1,0,66,93.13,8.17,8.17,0,0,0,57.89,85m32.26-9.17c-11.26,0-17,7-17,20.72,0,11.23-8.09,12.91-12.91,12.91-14,0-39.06-14.31-39.06-42.8,0-29.4,22.19-42.8,42.8-42.8,24.83,0,42.8,21.1,42.8,35.33,0,13.81-6.66,16.64-16.65,16.64M64,19.77c-22.58,0-46.87,14.67-46.87,46.87,0,31.21,27.65,46.87,43.13,46.87,10.64,0,17-6.35,17-17,0-11.51,4-16.64,12.9-16.64,9.65,0,20.72-2.36,20.72-20.72,0-15.87-19.68-39.4-46.87-39.4"/><path id="Fill-403" class="cls-9" d="M108.49,53.79a2,2,0,0,0-2,1.76c-1.18,8.6-5.92,12.11-16.35,12.11-11.26,0-17,7-17,20.71,0,11.24-8.09,12.91-12.91,12.91-12.1,0-36.75-11.83-38.86-39.17a2,2,0,0,0-4.06,0c-.11,1.48-.21,3-.21,4.53,0,31.21,27.65,46.87,43.13,46.87,10.64,0,17-6.35,17-17,0-11.51,4-16.65,12.9-16.65,9.65,0,20.72-2.35,20.72-20.71a22.35,22.35,0,0,0-.34-3.68,2,2,0,0,0-2-1.7"/></g></g></g></svg>